<svg width="22" height="22" xmlns="http://www.w3.org/2000/svg" xmlns:xlink="http://www.w3.org/1999/xlink"><defs><path d="M17.364 11.364A8.972 8.972 0 0 1 11 14a8.972 8.972 0 0 1-6.364-2.636L3 13V8h5l-2 2h.101A6.977 6.977 0 0 0 11 12a6.977 6.977 0 0 0 4.899-2H16l-2-2h5v5l-1.636-1.636z" id="b"/><filter x="-25%" y="-66.7%" width="150%" height="240.2%" filterUnits="objectBoundingBox" id="a"><feMorphology radius="1" operator="dilate" in="SourceAlpha" result="shadowSpreadOuter1"/><feOffset in="shadowSpreadOuter1" result="shadowOffsetOuter1"/><feGaussianBlur stdDeviation="1" in="shadowOffsetOuter1" result="shadowBlurOuter1"/><feComposite in="shadowBlurOuter1" in2="SourceAlpha" operator="out" result="shadowBlurOuter1"/><feColorMatrix values="0 0 0 0 0 0 0 0 0 0 0 0 0 0 0 0 0 0 0.400076486 0" in="shadowBlurOuter1"/></filter></defs><use filter="url(#a)" xlink:href="#b"/><path stroke="#FFF" d="M17.355 12.062A9.466 9.466 0 0 1 11 14.5a9.466 9.466 0 0 1-6.355-2.438L2.5 14.207V7.5h6.707L6.771 9.936A6.473 6.473 0 0 0 11 11.5a6.473 6.473 0 0 0 4.23-1.564L12.792 7.5H19.5v6.707l-2.145-2.145z" fill-rule="evenodd"/></svg>